<svg id="Componente_14_1" data-name="Componente 14 – 1" xmlns="http://www.w3.org/2000/svg" width="18.259" height="23.999" viewBox="0 0 18.259 23.999">
  <path id="Caminho_118" data-name="Caminho 118" d="M900.183,537.9l-3.043,1.714v0l3.043,1.713,3.043-1.713v0Z" transform="translate(-897.14 -537.898)" fill="#d8d8d8"/>
  <path id="Caminho_119" data-name="Caminho 119" d="M955.5,572.477v13.714l3.043-1.714V570.764Z" transform="translate(-952.456 -569.05)" fill="#d8d8d8"/>
  <path id="Caminho_120" data-name="Caminho 120" d="M1133.652,538l-3.043,1.714v0l3.043,1.713,3.043-1.713v0Z" transform="translate(-1118.436 -537.998)" fill="#d8d8d8"/>
  <path id="Caminho_121" data-name="Caminho 121" d="M1130.6,570.869v13.708l3.043,1.714V572.583Z" transform="translate(-1118.429 -569.15)" fill="#d8d8d8"/>
  <path id="Caminho_122" data-name="Caminho 122" d="M967.678,835.357l-3.043-1.714-3.043,1.715h0l-3.043-1.713-3.043,1.713h0l6.086,3.436,6.086-3.437Z" transform="translate(-952.463 -818.222)" fill="#d8d8d8"/>
  <path id="Caminho_123" data-name="Caminho 123" d="M900.176,586.184V572.477l-3.043-1.713v17.143l9.129,5.141V589.62Z" transform="translate(-897.133 -569.05)" fill="#d8d8d8"/>
  <path id="Caminho_124" data-name="Caminho 124" d="M1081.365,570.869l-3.042,1.714v13.7l-6.086,3.436v3.428l9.129-5.141Zm-3.043,15.423h0l.009,0Z" transform="translate(-1063.106 -569.15)" fill="#d8d8d8"/>
</svg>
