<svg xmlns="http://www.w3.org/2000/svg" width="346.273" height="455.117" viewBox="0 0 346.273 455.117">
  <g id="Grupo_430" data-name="Grupo 430" transform="translate(-5076.092 776.935)">
    <path id="Caminho_89" data-name="Caminho 89" d="M5133.8-776.935l-57.7,32.5v.039l57.7,32.484,57.711-32.484v-.039Z" fill="#7ac3d8"/>
    <path id="Caminho_90" data-name="Caminho 90" d="M5133.8-711.942v260.074l57.711-32.5V-744.438Z" fill="#0087cd"/>
    <path id="Caminho_91" data-name="Caminho 91" d="M5364.66-776.831l-57.711,32.5v.039l57.711,32.484,57.7-32.484v-.039Z" fill="#7ac3d8"/>
    <path id="Caminho_92" data-name="Caminho 92" d="M5306.949-744.334l-.007,259.969,57.711,32.5.007-259.957Z" fill="#52b3d4"/>
    <path id="Caminho_93" data-name="Caminho 93" d="M5364.653-452l-57.711-32.509-57.7,32.522-.007-.013-57.716-32.482L5133.81-452v.027l115.421,65.162,115.422-65.175Z" fill="#7ac3d8"/>
    <path id="Caminho_94" data-name="Caminho 94" d="M5133.8-452V-711.942l-57.711-32.5v325.117l173.139,97.5v-65.019Z" fill="#52b3d4"/>
    <path id="Caminho_95" data-name="Caminho 95" d="M5422.365-744.334l-57.705,32.509L5364.653-452l-115.422,65.162v65.019l173.134-97.5Zm-57.712,292.491v-.025l.174-.091Z" fill="#0087cd"/>
  </g>
</svg>
